# Blender v2.79 (sub 0) OBJ File: 'map.blend'
# www.blender.org
mtllib map.mtl
o Plane
v -3.974009 -3.974009 0.029693
v 3.974009 -3.974009 0.029693
v -3.974009 3.974009 0.029693
v 3.974009 3.974009 0.029693
v 1.829077 -3.919392 0.000543
v 1.829077 -3.919392 2.000543
v 1.829077 -1.801586 0.000543
v 1.829077 -1.801586 2.000543
v 3.876822 -3.919392 0.000543
v 3.876822 -3.919392 2.000543
v 3.876822 -1.801586 0.000543
v 3.876822 -1.801586 2.000543
v 1.831843 0.262358 0.001203
v 1.831843 0.262358 2.001203
v 1.831843 3.933135 0.001203
v 1.831843 3.933135 2.001203
v 3.831843 0.262358 0.001203
v 3.831843 0.262358 2.001203
v 3.831843 3.933135 0.001203
v 3.831843 3.933135 2.001203
v -3.910987 -3.902963 0.002496
v -3.910987 -3.902963 2.002496
v -3.910987 3.850200 0.002496
v -3.910987 3.850200 2.002496
v -0.506024 -3.902963 0.002496
v -0.506024 -3.902963 0.996401
v -0.506024 3.850200 0.002496
v -0.506024 3.850200 0.996401
v -3.910987 -0.026381 2.002496
v -2.208505 3.850200 0.996401
v -0.506024 -0.026381 0.996401
v -2.208505 -3.902963 0.996401
v -2.208505 -0.026381 0.996401
v -0.592861 -3.850542 0.983097
v -0.592861 -3.850542 1.198214
v -0.592861 3.831173 0.983097
v -0.592861 3.831173 1.198214
v -0.532861 -3.850542 0.983097
v -0.532861 -3.850542 1.198214
v -0.532861 3.831173 0.983097
v -0.532861 3.831173 1.198214
v -2.212952 -3.854858 0.992890
v -2.212952 -3.854858 1.202093
v -2.212952 -3.794858 0.992890
v -2.212952 -3.794858 1.202093
v -0.550066 -3.854858 0.992890
v -0.550066 -3.854858 1.202093
v -0.550066 -3.794858 0.992890
v -0.550066 -3.794858 1.202093
v -2.212952 3.759562 0.992890
v -2.212952 3.759562 1.202093
v -2.212952 3.819562 0.992890
v -2.212952 3.819562 1.202093
v -0.550066 3.759562 0.992890
v -0.550066 3.759562 1.202093
v -0.550066 3.819562 0.992890
v -0.550066 3.819562 1.202093
v 1.855309 3.826432 1.995107
v 1.855309 3.826432 2.204310
v 1.855309 3.886432 1.995107
v 1.855309 3.886432 2.204310
v 3.801732 3.826432 1.995107
v 3.801732 3.826432 2.204310
v 3.801732 3.886432 1.995107
v 3.801732 3.886432 2.204310
v 1.855309 0.287819 1.995107
v 1.855309 0.287819 2.204310
v 1.855309 0.347819 1.995107
v 1.855309 0.347819 2.204310
v 3.801732 0.287819 1.995107
v 3.801732 0.287819 2.204310
v 3.801732 0.347819 1.995107
v 3.801732 0.347819 2.204310
v 1.855309 -1.901137 1.995107
v 1.855309 -1.901137 2.204310
v 1.855309 -1.841137 1.995107
v 1.855309 -1.841137 2.204310
v 3.801732 -1.901137 1.995107
v 3.801732 -1.901137 2.204310
v 3.801732 -1.841137 1.995107
v 3.801732 -1.841137 2.204310
v 1.855309 -3.881780 1.995107
v 1.855309 -3.881780 2.204310
v 1.855309 -3.821780 1.995107
v 1.855309 -3.821780 2.204310
v 3.801732 -3.881780 1.995107
v 3.801732 -3.881780 2.204310
v 3.801732 -3.821780 1.995107
v 3.801732 -3.821780 2.204310
v 1.922322 -3.852524 1.995107
v 1.922322 -3.852524 2.204310
v 1.862322 -3.852524 1.995107
v 1.862322 -3.852524 2.204310
v 1.922322 -1.906101 1.995107
v 1.922322 -1.906101 2.204310
v 1.862322 -1.906101 1.995107
v 1.862322 -1.906101 2.204310
v 1.921233 0.317239 1.998905
v 1.921233 0.317239 2.200512
v 1.863411 0.317239 1.998905
v 1.863411 0.317239 2.200512
v 1.921233 3.818070 1.998905
v 1.921233 3.818070 2.200512
v 1.863411 3.818070 1.998905
v 1.863411 3.818070 2.200512
vn 0.0000 0.0000 1.0000
vn -1.0000 0.0000 0.0000
vn 0.0000 1.0000 0.0000
vn 1.0000 0.0000 0.0000
vn 0.0000 -1.0000 0.0000
vn 0.0000 0.0000 -1.0000
vn 0.5088 0.0000 0.8609
usemtl None
s off
f 2//1 3//1 1//1
f 6//2 7//2 5//2
f 8//3 11//3 7//3
f 12//4 9//4 11//4
f 10//5 5//5 9//5
f 11//6 5//6 7//6
f 8//1 10//1 12//1
f 14//2 15//2 13//2
f 16//3 19//3 15//3
f 20//4 17//4 19//4
f 18//5 13//5 17//5
f 19//6 13//6 15//6
f 16//1 18//1 20//1
f 29//2 24//2 23//2
f 23//3 30//3 27//3
f 31//4 26//4 25//4
f 32//5 22//5 21//5
f 27//6 21//6 23//6
f 29//7 32//7 33//7
f 33//1 26//1 31//1
f 30//1 31//1 28//1
f 30//7 29//7 33//7
f 35//2 36//2 34//2
f 37//3 40//3 36//3
f 41//4 38//4 40//4
f 39//5 34//5 38//5
f 40//6 34//6 36//6
f 37//1 39//1 41//1
f 43//2 44//2 42//2
f 45//3 48//3 44//3
f 49//4 46//4 48//4
f 47//5 42//5 46//5
f 48//6 42//6 44//6
f 45//1 47//1 49//1
f 51//2 52//2 50//2
f 53//3 56//3 52//3
f 57//4 54//4 56//4
f 55//5 50//5 54//5
f 56//6 50//6 52//6
f 53//1 55//1 57//1
f 59//2 60//2 58//2
f 61//3 64//3 60//3
f 65//4 62//4 64//4
f 63//5 58//5 62//5
f 64//6 58//6 60//6
f 61//1 63//1 65//1
f 67//2 68//2 66//2
f 69//3 72//3 68//3
f 73//4 70//4 72//4
f 71//5 66//5 70//5
f 72//6 66//6 68//6
f 69//1 71//1 73//1
f 75//2 76//2 74//2
f 77//3 80//3 76//3
f 81//4 78//4 80//4
f 79//5 74//5 78//5
f 80//6 74//6 76//6
f 77//1 79//1 81//1
f 83//2 84//2 82//2
f 85//3 88//3 84//3
f 89//4 86//4 88//4
f 87//5 82//5 86//5
f 88//6 82//6 84//6
f 85//1 87//1 89//1
f 91//5 92//5 90//5
f 93//2 96//2 92//2
f 97//3 94//3 96//3
f 95//4 90//4 94//4
f 96//6 90//6 92//6
f 93//1 95//1 97//1
f 99//5 100//5 98//5
f 101//2 104//2 100//2
f 105//3 102//3 104//3
f 103//4 98//4 102//4
f 104//6 98//6 100//6
f 101//1 103//1 105//1
f 2//1 4//1 3//1
f 6//2 8//2 7//2
f 8//3 12//3 11//3
f 12//4 10//4 9//4
f 10//5 6//5 5//5
f 11//6 9//6 5//6
f 8//1 6//1 10//1
f 14//2 16//2 15//2
f 16//3 20//3 19//3
f 20//4 18//4 17//4
f 18//5 14//5 13//5
f 19//6 17//6 13//6
f 16//1 14//1 18//1
f 23//2 21//2 29//2
f 21//2 22//2 29//2
f 23//3 24//3 30//3
f 30//3 28//3 27//3
f 25//4 27//4 31//4
f 27//4 28//4 31//4
f 21//5 25//5 32//5
f 25//5 26//5 32//5
f 27//6 25//6 21//6
f 29//7 22//7 32//7
f 33//1 32//1 26//1
f 30//1 33//1 31//1
f 30//7 24//7 29//7
f 35//2 37//2 36//2
f 37//3 41//3 40//3
f 41//4 39//4 38//4
f 39//5 35//5 34//5
f 40//6 38//6 34//6
f 37//1 35//1 39//1
f 43//2 45//2 44//2
f 45//3 49//3 48//3
f 49//4 47//4 46//4
f 47//5 43//5 42//5
f 48//6 46//6 42//6
f 45//1 43//1 47//1
f 51//2 53//2 52//2
f 53//3 57//3 56//3
f 57//4 55//4 54//4
f 55//5 51//5 50//5
f 56//6 54//6 50//6
f 53//1 51//1 55//1
f 59//2 61//2 60//2
f 61//3 65//3 64//3
f 65//4 63//4 62//4
f 63//5 59//5 58//5
f 64//6 62//6 58//6
f 61//1 59//1 63//1
f 67//2 69//2 68//2
f 69//3 73//3 72//3
f 73//4 71//4 70//4
f 71//5 67//5 66//5
f 72//6 70//6 66//6
f 69//1 67//1 71//1
f 75//2 77//2 76//2
f 77//3 81//3 80//3
f 81//4 79//4 78//4
f 79//5 75//5 74//5
f 80//6 78//6 74//6
f 77//1 75//1 79//1
f 83//2 85//2 84//2
f 85//3 89//3 88//3
f 89//4 87//4 86//4
f 87//5 83//5 82//5
f 88//6 86//6 82//6
f 85//1 83//1 87//1
f 91//5 93//5 92//5
f 93//2 97//2 96//2
f 97//3 95//3 94//3
f 95//4 91//4 90//4
f 96//6 94//6 90//6
f 93//1 91//1 95//1
f 99//5 101//5 100//5
f 101//2 105//2 104//2
f 105//3 103//3 102//3
f 103//4 99//4 98//4
f 104//6 102//6 98//6
f 101//1 99//1 103//1
