# Blender v2.79 (sub 0) OBJ File: 'Test-Map-raw.blend'
# www.blender.org
mtllib map3.mtl
v 8.000000 8.000000 0.000000
v 8.000000 8.000000 4.855262
v 8.000000 -8.000000 0.000000
v 8.000000 -8.000000 4.855262
v -8.000000 8.000000 0.000000
v -8.000000 8.000000 4.855262
v -8.000000 -8.000000 0.000000
v -8.000000 -8.000000 4.855262
v 7.200000 7.200000 0.547512
v 7.200000 -7.200000 0.547512
v -7.200000 7.200000 0.547512
v -7.200000 -7.200000 0.547512
v 7.200000 7.200000 4.855262
v -7.200000 7.200000 4.855262
v 4.702972 2.000000 2.343694
v 7.200000 -7.200000 4.855262
v -7.200000 -7.200000 4.855262
v 4.702972 -2.000000 2.343694
v 7.200000 -2.000000 2.343694
v 7.200000 2.000000 2.343694
v 2.954805 3.748167 0.547511
v 7.200000 3.748167 0.547512
v 7.200000 -3.748168 0.547512
v 2.954805 -3.748167 0.547511
v -3.319371 -4.426137 0.559520
v -3.319371 4.426136 0.559520
v -4.821352 -4.426136 1.076335
v -4.821353 4.426136 1.076335
v -5.074848 -4.426136 1.292096
v -5.074848 4.426136 1.292096
v -4.508843 -4.426136 0.890086
v -4.508843 4.426136 0.890086
v -5.261626 -4.426136 1.530814
v -5.261626 4.426136 1.530814
v -3.746267 -4.426136 0.627691
v -3.746267 4.426136 0.627691
v -5.376013 -4.426137 1.785238
v -5.376013 4.426138 1.785238
v -5.414277 4.426137 2.045894
v -5.414277 -4.426137 2.045894
v -4.146815 -4.426137 0.739007
v -4.146815 4.426138 0.739007
v -7.200000 4.426137 0.547511
v -7.200000 4.426137 2.045894
v -3.089068 4.426136 0.547512
v -3.089068 -4.426137 0.547512
v -7.200000 -4.426137 0.547512
v -7.200000 -4.426137 2.045894
vt 0.000000 1.000000
vt 0.194643 0.655172
vt 0.194643 1.000000
vt 0.524500 0.689655
vt 0.721825 0.344828
vt 0.721825 0.689655
vt 0.721826 0.689655
vt 0.918166 0.344828
vt 0.918166 0.689655
vt 0.524500 0.344828
vt 0.327174 0.689655
vt 0.327174 0.344828
vt 0.000000 0.344828
vt 0.327174 0.000000
vt 0.327174 0.344828
vt 0.343427 0.327586
vt 0.652232 0.344828
vt 0.327174 0.344828
vt 0.603813 0.887931
vt 0.502248 1.000000
vt 0.502248 0.689655
vt 0.652232 0.000000
vt 0.827306 0.310345
vt 0.652232 0.310345
vt 0.939931 0.250563
vt 0.827306 0.310345
vt 0.827306 0.000000
vt 0.327174 0.689655
vt 0.502248 1.000000
vt 0.327174 1.000000
vt 0.206307 0.580779
vt 0.292553 0.655172
vt 0.083518 0.595391
vt 0.763457 0.705632
vt 0.712727 0.791839
vt 0.712727 0.705632
vt 0.635979 0.017241
vt 0.327174 0.000000
vt 0.652232 0.000000
vt 0.271629 0.999714
vt 0.194643 0.945899
vt 0.271629 0.908222
vt 0.194643 0.655172
vt 0.272613 0.779055
vt 0.194643 0.816731
vt 0.194643 0.908223
vt 0.271629 0.854407
vt 0.271629 0.908223
vt 0.281343 0.655172
vt 0.291018 0.845954
vt 0.281343 0.845954
vt 0.061140 0.404609
vt 0.053083 0.595391
vt 0.053083 0.404609
vt 0.291018 0.655172
vt 0.301343 0.845954
vt 0.312006 0.655172
vt 0.322610 0.845954
vt 0.312006 0.845954
vt 0.272613 0.655172
vt 0.272613 0.845954
vt 0.078784 0.595391
vt 0.069794 0.404609
vt 0.078784 0.404609
vt 0.301343 0.655172
vt 0.069794 0.595391
vt 0.737345 0.969034
vt 0.715852 0.917771
vt 0.723422 0.911035
vt 0.083518 0.404609
vt 0.676448 0.689655
vt 0.712727 0.880437
vt 0.676448 0.880437
vt 0.712727 0.880437
vt 0.734219 0.829173
vt 0.742988 0.834636
vt 0.000000 0.655172
vt 0.524500 0.344828
vt 0.721825 0.344828
vt 0.524500 0.689655
vt 0.000000 0.000000
vt 0.343427 0.017241
vt 0.635979 0.327586
vt 0.676448 0.689655
vt 0.603813 0.801724
vt 0.676448 0.764048
vt 0.676448 0.925607
vt 0.676448 1.000000
vt 1.000000 0.000000
vt 0.939931 0.059782
vt 1.000000 0.059782
vt 1.000000 0.250563
vt 1.000000 0.310345
vt 0.000000 0.344828
vt 0.292553 0.344828
vt 0.292553 0.419220
vt 0.206307 0.419220
vt 0.000000 0.404609
vt 0.000000 0.655172
vt 0.000000 0.595391
vt 0.292553 0.580779
vt 0.763457 0.791839
vt 0.194643 0.999714
vt 0.272613 0.692848
vt 0.061140 0.595391
vt 0.322610 0.655172
vt 0.736857 0.885400
vt 0.737345 0.880437
vt 0.676448 0.969034
vt 0.697382 0.927259
vt 0.676448 0.930549
vt 0.687042 0.929724
vt 0.734086 0.894601
vt 0.729562 0.903233
vt 0.707084 0.923234
vt 0.712727 0.689655
vt 0.773624 0.841951
vt 0.773624 0.880437
vt 0.763030 0.841127
vt 0.752690 0.838662
vt 0.712727 0.791839
vt 0.713215 0.796803
vt 0.715986 0.806003
vt 0.720510 0.814635
vt 0.726650 0.822438
vn 1.0000 0.0000 0.0000
vn 0.0000 -1.0000 0.0000
vn -1.0000 0.0000 0.0000
vn 0.0000 1.0000 0.0000
vn 0.0000 0.0000 -1.0000
vn 0.0000 0.0000 1.0000
vn -0.0000 -0.7166 0.6975
vn -0.7166 0.0000 0.6975
vn 0.0000 0.7166 0.6975
vn 0.6482 0.0000 0.7615
vn 0.3851 0.0000 0.9229
vn 0.7876 0.0000 0.6162
vn 0.9894 0.0000 0.1452
vn 0.5120 0.0000 0.8590
vn 0.1577 0.0000 0.9875
vn 0.9121 0.0000 0.4101
vn 0.2678 0.0000 0.9635
vn 0.0521 0.0000 0.9986
usemtl Material.001
s off
f 2/1/1 3/2/1 1/3/1
f 4/4/2 7/5/2 3/6/2
f 8/7/3 5/8/3 7/9/3
f 6/10/4 1/11/4 5/12/4
f 7/13/5 1/14/5 3/15/5
f 14/16/6 2/17/6 6/18/6
f 19/19/3 16/20/3 13/21/3
f 12/22/4 16/23/4 10/24/4
f 44/25/1 14/26/1 17/27/1
f 9/28/2 14/29/2 11/30/2
f 21/31/6 9/32/6 45/33/6
f 19/34/6 15/35/6 18/36/6
f 16/37/6 8/38/6 4/39/6
f 23/40/7 18/41/7 24/42/7
f 24/43/8 15/44/8 21/45/8
f 22/46/9 15/47/9 20/48/9
f 28/49/10 29/50/10 27/51/10
f 41/52/11 32/53/11 31/54/11
f 30/55/12 33/56/12 29/50/12
f 38/57/13 40/58/13 37/59/13
f 32/60/14 27/51/14 31/61/14
f 26/62/15 35/63/15 25/64/15
f 34/65/16 37/59/16 33/56/16
f 36/66/17 41/52/17 35/63/17
f 43/67/4 28/68/4 32/69/4
f 45/33/18 25/64/18 46/70/18
f 48/71/6 39/72/6 44/73/6
f 47/74/2 27/75/2 29/76/2
f 2/1/1 4/77/1 3/2/1
f 4/4/2 8/78/2 7/5/2
f 8/7/3 6/79/3 5/8/3
f 6/10/4 2/80/4 1/11/4
f 7/13/5 5/81/5 1/14/5
f 6/18/6 8/38/6 17/82/6
f 14/16/6 13/83/6 2/17/6
f 6/18/6 17/82/6 14/16/6
f 13/21/3 9/84/3 20/85/3
f 9/84/3 22/86/3 20/85/3
f 23/87/3 10/88/3 19/19/3
f 10/88/3 16/20/3 19/19/3
f 13/21/3 20/85/3 19/19/3
f 12/22/4 17/27/4 16/23/4
f 17/27/1 12/89/1 48/90/1
f 12/89/1 47/91/1 48/90/1
f 43/92/1 11/93/1 44/25/1
f 11/93/1 14/26/1 44/25/1
f 17/27/1 48/90/1 44/25/1
f 9/28/2 13/21/2 14/29/2
f 12/94/6 10/95/6 46/70/6
f 10/95/6 23/96/6 24/97/6
f 10/95/6 24/97/6 46/70/6
f 46/70/6 47/98/6 12/94/6
f 11/99/6 43/100/6 45/33/6
f 9/32/6 11/99/6 45/33/6
f 45/33/6 46/70/6 24/97/6
f 21/31/6 22/101/6 9/32/6
f 45/33/6 24/97/6 21/31/6
f 19/34/6 20/102/6 15/35/6
f 4/39/6 2/17/6 13/83/6
f 16/37/6 17/82/6 8/38/6
f 4/39/6 13/83/6 16/37/6
f 23/40/7 19/103/7 18/41/7
f 24/43/8 18/104/8 15/44/8
f 22/46/9 21/45/9 15/47/9
f 28/49/10 30/55/10 29/50/10
f 41/52/11 42/105/11 32/53/11
f 30/55/12 34/65/12 33/56/12
f 38/57/13 39/106/13 40/58/13
f 32/60/14 28/49/14 27/51/14
f 26/62/15 36/66/15 35/63/15
f 34/65/16 38/57/16 37/59/16
f 36/66/17 42/105/17 41/52/17
f 26/107/4 45/108/4 43/67/4
f 43/67/4 44/109/4 34/110/4
f 44/109/4 39/111/4 38/112/4
f 44/109/4 38/112/4 34/110/4
f 36/113/4 26/107/4 43/67/4
f 42/114/4 36/113/4 43/67/4
f 43/67/4 34/110/4 30/115/4
f 32/69/4 42/114/4 43/67/4
f 43/67/4 30/115/4 28/68/4
f 45/33/18 26/62/18 25/64/18
f 48/71/6 40/116/6 39/72/6
f 40/117/2 48/118/2 37/119/2
f 48/118/2 47/74/2 33/120/2
f 37/119/2 48/118/2 33/120/2
f 47/74/2 46/121/2 25/122/2
f 47/74/2 25/122/2 35/123/2
f 47/74/2 35/123/2 41/124/2
f 47/74/2 41/124/2 31/125/2
f 29/76/2 33/120/2 47/74/2
f 47/74/2 31/125/2 27/75/2
