# Blender v2.79 (sub 0) OBJ File: 'Test-Map-raw.blend'
# www.blender.org
mtllib map4.mtl
v 8.000000 8.000000 0.000000
v 8.000000 8.000000 4.855262
v 8.000000 -8.000000 0.000000
v 8.000000 -8.000000 4.855262
v -8.000000 8.000000 0.000000
v -8.000000 8.000000 4.855262
v -8.000000 -8.000000 0.000000
v -8.000000 -8.000000 4.855262
v 7.200000 7.200000 0.547512
v 7.200000 -7.200000 0.547512
v -7.200000 7.200000 0.547512
v -7.200000 -7.200000 0.547512
v 7.200000 7.200000 4.855262
v -7.200000 7.200000 4.855262
v 4.702972 2.000000 2.343694
v 7.200000 -7.200000 4.855262
v -7.200000 -7.200000 4.855262
v 4.702972 -2.000000 2.343694
v 7.200000 -2.000000 2.343694
v 7.200000 2.000000 2.343694
v 2.954805 3.748167 0.547511
v 7.200000 3.748167 0.547512
v 7.200000 -3.748168 0.547512
v 2.954805 -3.748167 0.547511
v -3.319371 -4.426137 0.559520
v -3.319371 4.426136 0.559520
v -4.821352 -4.426136 1.076335
v -4.821353 4.426136 1.076335
v -5.074848 -4.426136 1.292096
v -5.074848 4.426136 1.292096
v -4.508843 -4.426136 0.890086
v -4.508843 4.426136 0.890086
v -5.261626 -4.426136 1.530814
v -5.261626 4.426136 1.530814
v -3.746267 -4.426136 0.627691
v -3.746267 4.426136 0.627691
v -5.376013 -4.426137 1.785238
v -5.376013 4.426138 1.785238
v -5.414277 4.426137 2.045894
v -5.414277 -4.426137 2.045894
v -4.146815 -4.426137 0.739007
v -4.146815 4.426138 0.739007
v -7.200000 4.426137 0.547511
v -7.200000 4.426137 2.045894
v -3.089068 4.426136 0.547512
v -3.089068 -4.426137 0.547512
v -7.200000 -4.426137 0.547512
v -7.200000 -4.426137 2.045894
vt 0.040945 0.573664
vt 0.348438 0.273232
vt 0.318460 0.305999
vt 0.113871 0.039521
vt 0.394984 0.297321
vt 0.598995 0.041503
vt 0.374447 0.350659
vt 0.684454 0.576293
vt 0.731451 0.613329
vt 0.627966 0.617110
vt 0.702441 0.809042
vt 0.383323 0.809042
vt 0.999725 0.613880
vt 0.702991 0.791415
vt 0.702991 0.613880
vt 0.440482 0.925375
vt 0.383322 0.809592
vt 0.680056 0.809592
vt 0.680606 0.987128
vt 0.977340 0.809592
vt 0.977340 0.987128
vt 0.087995 0.685206
vt 0.000275 0.613880
vt 0.382772 0.671197
vt 0.814427 0.342858
vt 0.732001 0.291403
vt 0.814427 0.291403
vt 0.077553 0.004142
vt 0.814327 0.170630
vt 0.732001 0.119175
vt 0.814327 0.083151
vt 0.886474 0.000275
vt 0.768025 0.082601
vt 0.732001 0.000275
vt 0.732001 0.171180
vt 0.783456 0.253506
vt 0.732001 0.253506
vt 0.732001 0.376133
vt 0.914415 0.365820
vt 0.914415 0.376133
vt 0.914414 0.396970
vt 0.732001 0.387253
vt 0.914414 0.387253
vt 0.732001 0.365270
vt 0.914415 0.354706
vt 0.914415 0.365270
vt 0.702991 0.802736
vt 0.885406 0.791965
vt 0.885406 0.802736
vt 0.732001 0.386703
vt 0.914414 0.376683
vt 0.914414 0.386703
vt 0.732001 0.416748
vt 0.914415 0.407513
vt 0.914415 0.416748
vt 0.732001 0.354155
vt 0.914416 0.343408
vt 0.914416 0.354155
vt 0.732001 0.406963
vt 0.914415 0.397520
vt 0.914415 0.406963
vt 0.297827 0.671197
vt 0.341412 0.651115
vt 0.347264 0.657904
vt 0.702991 0.809042
vt 0.885404 0.804271
vt 0.885404 0.809042
vt 0.914415 0.254056
vt 0.732001 0.290853
vt 0.732001 0.254056
vt 0.297827 0.854114
vt 0.346730 0.876522
vt 0.341391 0.885379
vt 0.629327 0.000275
vt 0.000275 0.613325
vt 0.383322 0.618114
vt 0.627948 0.614851
vt 0.625911 0.613880
vt 0.625945 0.618114
vt 0.702441 0.618114
vt 0.999725 0.791415
vt 0.680056 0.987128
vt 0.622896 0.925375
vt 0.622896 0.987128
vt 0.440482 0.987128
vt 0.383322 0.987128
vt 0.680606 0.809592
vt 0.297827 0.911431
vt 0.000275 0.911431
vt 0.382772 0.854114
vt 0.000275 0.840105
vt 0.087995 0.840105
vt 0.297827 0.613880
vt 0.000275 0.685206
vt 0.732001 0.342858
vt 0.732001 0.170630
vt 0.850451 0.082601
vt 0.819480 0.171180
vt 0.732001 0.365820
vt 0.732001 0.396970
vt 0.732001 0.354706
vt 0.702991 0.791965
vt 0.732001 0.376683
vt 0.732001 0.407513
vt 0.732001 0.343408
vt 0.732001 0.397520
vt 0.369352 0.669797
vt 0.297088 0.615958
vt 0.333072 0.634468
vt 0.330004 0.615517
vt 0.332241 0.624890
vt 0.361450 0.667389
vt 0.354012 0.663384
vt 0.336632 0.643223
vt 0.702991 0.804271
vt 0.914415 0.290853
vt 0.334027 0.916451
vt 0.297129 0.916035
vt 0.336513 0.905939
vt 0.337421 0.895200
vt 0.378005 0.855514
vt 0.369153 0.858231
vt 0.360824 0.862738
vt 0.353274 0.868897
vn 1.0000 0.0000 0.0000
vn 0.0000 -1.0000 0.0000
vn -1.0000 0.0000 0.0000
vn 0.0000 1.0000 0.0000
vn 0.0000 0.0000 -1.0000
vn 0.0000 0.0000 1.0000
vn -0.0000 -0.7166 0.6975
vn -0.7166 0.0000 0.6975
vn 0.0000 0.7166 0.6975
vn 0.6482 0.0000 0.7615
vn 0.3851 0.0000 0.9229
vn 0.7876 0.0000 0.6162
vn 0.9894 0.0000 0.1452
vn 0.5120 0.0000 0.8590
vn 0.1577 0.0000 0.9875
vn 0.9121 0.0000 0.4101
vn 0.2678 0.0000 0.9635
vn 0.0521 0.0000 0.9986
usemtl None
s off
f 2/1/1 3/2/1 1/3/1
f 4/4/2 7/5/2 3/2/2
f 8/6/3 5/7/3 7/5/3
f 6/8/4 1/3/4 5/7/4
f 7/5/5 1/3/5 3/2/5
f 14/9/6 2/1/6 6/8/6
f 19/10/3 16/11/3 13/12/3
f 12/13/4 16/14/4 10/15/4
f 44/16/1 14/17/1 17/18/1
f 9/19/2 14/20/2 11/21/2
f 21/22/6 9/23/6 45/24/6
f 19/25/6 15/26/6 18/27/6
f 16/28/6 8/6/6 4/4/6
f 23/29/7 18/30/7 24/31/7
f 24/32/8 15/33/8 21/34/8
f 22/35/9 15/36/9 20/37/9
f 28/38/10 29/39/10 27/40/10
f 41/41/11 32/42/11 31/43/11
f 30/44/12 33/45/12 29/46/12
f 38/47/13 40/48/13 37/49/13
f 32/50/14 27/51/14 31/52/14
f 26/53/15 35/54/15 25/55/15
f 34/56/16 37/57/16 33/58/16
f 36/59/17 41/60/17 35/61/17
f 43/62/4 28/63/4 32/64/4
f 45/65/18 25/66/18 46/67/18
f 48/68/6 39/69/6 44/70/6
f 47/71/2 27/72/2 29/73/2
f 2/1/1 4/4/1 3/2/1
f 4/4/2 8/6/2 7/5/2
f 8/6/3 6/8/3 5/7/3
f 6/8/4 2/1/4 1/3/4
f 7/5/5 5/7/5 1/3/5
f 6/8/6 8/6/6 17/74/6
f 14/9/6 13/75/6 2/1/6
f 6/8/6 17/74/6 14/9/6
f 13/12/3 9/76/3 20/77/3
f 9/76/3 22/78/3 20/77/3
f 23/79/3 10/80/3 19/10/3
f 10/80/3 16/11/3 19/10/3
f 13/12/3 20/77/3 19/10/3
f 12/13/4 17/81/4 16/14/4
f 17/18/1 12/82/1 48/83/1
f 12/82/1 47/84/1 48/83/1
f 43/85/1 11/86/1 44/16/1
f 11/86/1 14/17/1 44/16/1
f 17/18/1 48/83/1 44/16/1
f 9/19/2 13/87/2 14/20/2
f 12/88/6 10/89/6 46/90/6
f 10/89/6 23/91/6 24/92/6
f 10/89/6 24/92/6 46/90/6
f 46/90/6 47/71/6 12/88/6
f 11/93/6 43/62/6 45/24/6
f 9/23/6 11/93/6 45/24/6
f 45/24/6 46/90/6 24/92/6
f 21/22/6 22/94/6 9/23/6
f 45/24/6 24/92/6 21/22/6
f 19/25/6 20/95/6 15/26/6
f 4/4/6 2/1/6 13/75/6
f 16/28/6 17/74/6 8/6/6
f 4/4/6 13/75/6 16/28/6
f 23/29/7 19/96/7 18/30/7
f 24/32/8 18/97/8 15/33/8
f 22/35/9 21/98/9 15/36/9
f 28/38/10 30/99/10 29/39/10
f 41/41/11 42/100/11 32/42/11
f 30/44/12 34/101/12 33/45/12
f 38/47/13 39/102/13 40/48/13
f 32/50/14 28/103/14 27/51/14
f 26/53/15 36/104/15 35/54/15
f 34/56/16 38/105/16 37/57/16
f 36/59/17 42/106/17 41/60/17
f 26/107/4 45/24/4 43/62/4
f 43/62/4 44/108/4 34/109/4
f 44/108/4 39/110/4 38/111/4
f 44/108/4 38/111/4 34/109/4
f 36/112/4 26/107/4 43/62/4
f 42/113/4 36/112/4 43/62/4
f 43/62/4 34/109/4 30/114/4
f 32/64/4 42/113/4 43/62/4
f 43/62/4 30/114/4 28/63/4
f 45/65/18 26/115/18 25/66/18
f 48/68/6 40/116/6 39/69/6
f 40/117/2 48/118/2 37/119/2
f 48/118/2 47/71/2 33/120/2
f 37/119/2 48/118/2 33/120/2
f 47/71/2 46/90/2 25/121/2
f 47/71/2 25/121/2 35/122/2
f 47/71/2 35/122/2 41/123/2
f 47/71/2 41/123/2 31/124/2
f 29/73/2 33/120/2 47/71/2
f 47/71/2 31/124/2 27/72/2
