# Blender v2.79 (sub 0) OBJ File: 'Test-Map-raw.blend'
# www.blender.org
mtllib map7.mtl
v 8.000000 8.000000 0.000000
v 8.000000 8.000000 4.855262
v 8.000000 -8.000000 0.000000
v 8.000000 -8.000000 4.855262
v -8.000000 8.000000 0.000000
v -8.000000 8.000000 4.855262
v -8.000000 -8.000000 0.000000
v -8.000000 -8.000000 4.855262
v 7.200000 7.200000 0.547512
v 7.200000 -7.200000 0.547512
v -7.200000 7.200000 0.547512
v -7.200000 -7.200000 0.547512
v 7.200000 7.200000 4.855262
v -7.200000 7.200000 4.855262
v 4.702972 2.000000 2.343694
v 7.200000 -7.200000 4.855262
v -7.200000 -7.200000 4.855262
v 4.702972 -2.000000 2.343694
v 7.200000 -2.000000 2.343694
v 7.200000 2.000000 2.343694
v 2.954805 3.748167 0.547511
v 7.200000 3.748167 0.547512
v 7.200000 -3.748168 0.547512
v 2.954805 -3.748167 0.547511
v -3.319371 -4.426137 0.559520
v -3.319371 4.426136 0.559520
v -4.821352 -4.426136 1.076335
v -4.821353 4.426136 1.076335
v -5.074848 -4.426136 1.292096
v -5.074848 4.426136 1.292096
v -4.508843 -4.426136 0.890086
v -4.508843 4.426136 0.890086
v -5.261626 -4.426136 1.530814
v -5.261626 4.426136 1.530814
v -3.746267 -4.426136 0.627691
v -3.746267 4.426136 0.627691
v -5.376013 -4.426137 1.785238
v -5.376013 4.426138 1.785238
v -5.414277 4.426137 2.045894
v -5.414277 -4.426137 2.045894
v -4.146815 -4.426137 0.739007
v -4.146815 4.426138 0.739007
v -7.200000 4.426137 0.547511
v -7.200000 4.426137 2.045894
v -3.089068 4.426136 0.547512
v -3.089068 -4.426137 0.547512
v -7.200000 -4.426137 0.547512
v -7.200000 -4.426137 2.045894
vt 1.000000 1.000000
vt 1.000000 0.000000
vt 1.000000 1.000000
vt 1.000000 0.000000
vt 0.000000 0.000000
vt 0.000000 1.000000
vt 0.000000 0.000000
vt 0.000000 1.000000
vt 0.950000 0.050000
vt 0.050000 0.625000
vt 0.050000 0.950000
vt 0.050000 0.050000
vt 0.950000 0.950000
vt 0.050000 0.950000
vt 0.950000 0.223366
vt 0.950000 0.950000
vt 0.050000 0.050000
vt 0.950000 0.050000
vt 0.315325 0.265740
vt 0.693067 0.223366
vt 0.206064 0.375000
vt 0.206064 0.625000
vt 0.050000 0.734260
vt 0.315325 0.734260
vt 0.050000 0.265740
vt 0.050000 0.375000
vt 0.801335 0.223366
vt 0.817178 0.776634
vt 0.801335 0.776634
vt 0.759176 0.776634
vt 0.781803 0.223366
vt 0.781803 0.776634
vt 0.817178 0.223366
vt 0.828852 0.776634
vt 0.836001 0.223366
vt 0.838392 0.776634
vt 0.836001 0.776634
vt 0.707461 0.223366
vt 0.734142 0.776634
vt 0.707461 0.776634
vt 0.828852 0.223366
vt 0.734142 0.223366
vt 0.950000 0.223366
vt 0.693067 0.776634
vt 0.950000 0.776634
vt 0.838392 0.223366
vt 0.950000 0.776634
vt 0.759176 0.223366
vn -1.0000 0.0000 0.0000
vn 1.0000 0.0000 0.0000
vn 0.0000 -1.0000 0.0000
vn 0.0000 1.0000 0.0000
vn 0.0000 0.0000 -1.0000
vn 0.0000 0.0000 1.0000
vn -0.0000 -0.7166 0.6975
vn -0.7166 0.0000 0.6975
vn 0.0000 0.7166 0.6975
vn 0.6482 0.0000 0.7615
vn 0.3851 0.0000 0.9229
vn 0.7876 0.0000 0.6162
vn 0.9894 0.0000 0.1452
vn 0.5120 0.0000 0.8590
vn 0.1577 0.0000 0.9875
vn 0.9121 0.0000 0.4101
vn 0.2678 0.0000 0.9635
vn 0.0521 0.0000 0.9986
usemtl Material.001
s off
f 8/1/1 5/2/1 7/3/1
f 8/1/1 6/4/1 5/2/1
usemtl Material.001_NONE
f 2/5/2 3/6/2 1/7/2
f 4/8/3 7/3/3 3/6/3
f 6/4/4 1/7/4 5/2/4
f 7/3/5 1/7/5 3/6/5
f 14/9/6 2/5/6 6/4/6
f 19/10/1 16/11/1 13/12/1
f 12/13/4 16/11/4 10/14/4
f 44/15/2 14/9/2 17/16/2
f 9/17/3 14/9/3 11/18/3
f 21/19/6 9/17/6 45/20/6
f 19/10/6 15/21/6 18/22/6
f 16/11/6 8/1/6 4/8/6
f 23/23/7 18/22/7 24/24/7
f 24/24/8 15/21/8 21/19/8
f 22/25/9 15/21/9 20/26/9
f 28/27/10 29/28/10 27/29/10
f 41/30/11 32/31/11 31/32/11
f 30/33/12 33/34/12 29/28/12
f 38/35/13 40/36/13 37/37/13
f 32/31/14 27/29/14 31/32/14
f 26/38/15 35/39/15 25/40/15
f 34/41/16 37/37/16 33/34/16
f 36/42/17 41/30/17 35/39/17
f 43/43/4 28/27/4 32/31/4
f 45/20/18 25/40/18 46/44/18
f 48/45/6 39/46/6 44/15/6
f 47/47/3 27/29/3 29/28/3
f 2/5/2 4/8/2 3/6/2
f 4/8/3 8/1/3 7/3/3
f 6/4/4 2/5/4 1/7/4
f 7/3/5 5/2/5 1/7/5
f 6/4/6 8/1/6 17/16/6
f 14/9/6 13/12/6 2/5/6
f 6/4/6 17/16/6 14/9/6
f 13/12/1 9/17/1 20/26/1
f 9/17/1 22/25/1 20/26/1
f 23/23/1 10/14/1 19/10/1
f 10/14/1 16/11/1 19/10/1
f 13/12/1 20/26/1 19/10/1
f 12/13/4 17/16/4 16/11/4
f 17/16/2 12/13/2 48/45/2
f 12/13/2 47/47/2 48/45/2
f 43/43/2 11/18/2 44/15/2
f 11/18/2 14/9/2 44/15/2
f 17/16/2 48/45/2 44/15/2
f 9/17/3 13/12/3 14/9/3
f 12/13/6 10/14/6 46/44/6
f 10/14/6 23/23/6 24/24/6
f 10/14/6 24/24/6 46/44/6
f 46/44/6 47/47/6 12/13/6
f 11/18/6 43/43/6 45/20/6
f 9/17/6 11/18/6 45/20/6
f 45/20/6 46/44/6 24/24/6
f 21/19/6 22/25/6 9/17/6
f 45/20/6 24/24/6 21/19/6
f 19/10/6 20/26/6 15/21/6
f 4/8/6 2/5/6 13/12/6
f 16/11/6 17/16/6 8/1/6
f 4/8/6 13/12/6 16/11/6
f 23/23/7 19/10/7 18/22/7
f 24/24/8 18/22/8 15/21/8
f 22/25/9 21/19/9 15/21/9
f 28/27/10 30/33/10 29/28/10
f 41/30/11 42/48/11 32/31/11
f 30/33/12 34/41/12 33/34/12
f 38/35/13 39/46/13 40/36/13
f 32/31/14 28/27/14 27/29/14
f 26/38/15 36/42/15 35/39/15
f 34/41/16 38/35/16 37/37/16
f 36/42/17 42/48/17 41/30/17
f 26/38/4 45/20/4 43/43/4
f 43/43/4 44/15/4 34/41/4
f 44/15/4 39/46/4 38/35/4
f 44/15/4 38/35/4 34/41/4
f 36/42/4 26/38/4 43/43/4
f 42/48/4 36/42/4 43/43/4
f 43/43/4 34/41/4 30/33/4
f 32/31/4 42/48/4 43/43/4
f 43/43/4 30/33/4 28/27/4
f 45/20/18 26/38/18 25/40/18
f 48/45/6 40/36/6 39/46/6
f 40/36/3 48/45/3 37/37/3
f 48/45/3 47/47/3 33/34/3
f 37/37/3 48/45/3 33/34/3
f 47/47/3 46/44/3 25/40/3
f 47/47/3 25/40/3 35/39/3
f 47/47/3 35/39/3 41/30/3
f 47/47/3 41/30/3 31/32/3
f 29/28/3 33/34/3 47/47/3
f 47/47/3 31/32/3 27/29/3
